<mxfile host="app.diagrams.net" modified="2022-07-22T18:54:49.109Z" agent="5.0 (Windows NT 10.0; Win64; x64) AppleWebKit/537.36 (KHTML, like Gecko) Chrome/103.0.0.0 Safari/537.36" etag="B2RuVnAc_MVXFBuWJu7x" version="20.2.0" type="github" pages="6">
  <diagram id="nKGaeM0TSgJgjrBLLhOO" name="Blackwing">
    <mxGraphModel dx="1369" dy="1944" grid="1" gridSize="10" guides="1" tooltips="1" connect="1" arrows="1" fold="1" page="1" pageScale="1" pageWidth="850" pageHeight="1100" math="0" shadow="0">
      <root>
        <mxCell id="0" />
        <mxCell id="1" parent="0" />
        <mxCell id="lFvNA6_jfG2Q7JL4HcK3-1" value="Blackwing - Shura the Blue Flame" style="whiteSpace=wrap;html=1;fillColor=#dae8fc;strokeColor=#6c8ebf;" parent="1" vertex="1">
          <mxGeometry x="30" y="-1060" width="120" height="60" as="geometry" />
        </mxCell>
        <mxCell id="lFvNA6_jfG2Q7JL4HcK3-2" value="Blackwing - Gale the Whrilwind" style="whiteSpace=wrap;html=1;fillColor=#ffe6cc;strokeColor=#d79b00;" parent="1" vertex="1">
          <mxGeometry x="170" y="-1060" width="120" height="60" as="geometry" />
        </mxCell>
        <mxCell id="lFvNA6_jfG2Q7JL4HcK3-3" value="Assault Blackwing - Chidori the Rain Sprinkling" style="whiteSpace=wrap;html=1;fillColor=#0050ef;strokeColor=#001DBC;fontColor=#ffffff;" parent="1" vertex="1">
          <mxGeometry x="310" y="-1060" width="120" height="60" as="geometry" />
        </mxCell>
        <mxCell id="2iw0dh3kBF73i4wy12Tx-1" value="Blackwing - Shura the Blue Flame" style="whiteSpace=wrap;html=1;fillColor=#dae8fc;strokeColor=#6c8ebf;" parent="1" vertex="1">
          <mxGeometry x="30" y="-980" width="120" height="60" as="geometry" />
        </mxCell>
        <mxCell id="2iw0dh3kBF73i4wy12Tx-2" value="Blackwing - Gale the Whrilwind" style="whiteSpace=wrap;html=1;fillColor=#ffe6cc;strokeColor=#d79b00;" parent="1" vertex="1">
          <mxGeometry x="170" y="-980" width="120" height="60" as="geometry" />
        </mxCell>
        <mxCell id="2iw0dh3kBF73i4wy12Tx-3" value="Assault Blackwing - Raikiri the Rain Shower" style="whiteSpace=wrap;html=1;fillColor=#6a00ff;strokeColor=#3700CC;fontColor=#ffffff;" parent="1" vertex="1">
          <mxGeometry x="310" y="-980" width="120" height="60" as="geometry" />
        </mxCell>
        <mxCell id="2iw0dh3kBF73i4wy12Tx-4" value="Blackwing - Sirocco the Dawn" style="whiteSpace=wrap;html=1;fillColor=#dae8fc;strokeColor=#6c8ebf;" parent="1" vertex="1">
          <mxGeometry x="170" y="-890" width="120" height="60" as="geometry" />
        </mxCell>
      </root>
    </mxGraphModel>
  </diagram>
  <diagram id="XAk19jjL0grtEa7kNc-3" name="Gunkan Suship">
    <mxGraphModel dx="2282" dy="1407" grid="1" gridSize="10" guides="1" tooltips="1" connect="1" arrows="1" fold="1" page="1" pageScale="1" pageWidth="850" pageHeight="1100" math="0" shadow="0">
      <root>
        <mxCell id="0" />
        <mxCell id="1" parent="0" />
        <mxCell id="8Kykemo6swlWoFwxvEj6-3" value="FIRE Support" style="swimlane;" parent="1" vertex="1">
          <mxGeometry x="20" y="160" width="160" height="260" as="geometry" />
        </mxCell>
        <mxCell id="8Kykemo6swlWoFwxvEj6-1" value="Barrier Statue of the Inferno" style="whiteSpace=wrap;html=1;fillColor=#ffe6cc;strokeColor=#d79b00;" parent="8Kykemo6swlWoFwxvEj6-3" vertex="1">
          <mxGeometry x="20" y="180" width="120" height="60" as="geometry" />
        </mxCell>
        <mxCell id="8Kykemo6swlWoFwxvEj6-2" value="True King Agnimazud, the Vanisher" style="whiteSpace=wrap;html=1;fillColor=#ffe6cc;strokeColor=#d79b00;" parent="8Kykemo6swlWoFwxvEj6-3" vertex="1">
          <mxGeometry x="20" y="40" width="120" height="60" as="geometry" />
        </mxCell>
        <mxCell id="8Kykemo6swlWoFwxvEj6-4" value="Hazy Flame Sphynx" style="whiteSpace=wrap;html=1;fillColor=#ffe6cc;strokeColor=#d79b00;" parent="8Kykemo6swlWoFwxvEj6-3" vertex="1">
          <mxGeometry x="20" y="110" width="120" height="60" as="geometry" />
        </mxCell>
        <mxCell id="BnYrXJmhmJlXwHzGKP-S-12" value="Gunkan Suship Monsters" style="swimlane;" parent="1" vertex="1">
          <mxGeometry x="20" y="20" width="550" height="120" as="geometry" />
        </mxCell>
        <mxCell id="o45Ohku343MH1LfRsQXY-1" value="Gunkan Suship Shari" style="whiteSpace=wrap;html=1;fillColor=#dae8fc;strokeColor=#6c8ebf;" parent="BnYrXJmhmJlXwHzGKP-S-12" vertex="1">
          <mxGeometry x="150" y="40" width="120" height="60" as="geometry" />
        </mxCell>
        <mxCell id="OCiO5wUWhMqaQ557Brtb-1" value="Gunkan Sunship Uni" style="whiteSpace=wrap;html=1;" parent="BnYrXJmhmJlXwHzGKP-S-12" vertex="1">
          <mxGeometry x="20" y="40" width="120" height="60" as="geometry" />
        </mxCell>
        <mxCell id="OCiO5wUWhMqaQ557Brtb-2" value="Gunkan Suship Ikura" style="whiteSpace=wrap;html=1;" parent="BnYrXJmhmJlXwHzGKP-S-12" vertex="1">
          <mxGeometry x="280" y="40" width="120" height="60" as="geometry" />
        </mxCell>
        <mxCell id="OCiO5wUWhMqaQ557Brtb-3" value="Gunkan Suship Shiranuo" style="whiteSpace=wrap;html=1;" parent="BnYrXJmhmJlXwHzGKP-S-12" vertex="1">
          <mxGeometry x="410" y="40" width="120" height="60" as="geometry" />
        </mxCell>
        <mxCell id="rciI87xook90kYw4HxMC-7" value="Suship Deck Special Summon" style="swimlane;" parent="1" vertex="1">
          <mxGeometry x="200" y="160" width="340" height="245" as="geometry" />
        </mxCell>
        <mxCell id="rciI87xook90kYw4HxMC-1" value="Gunkan Sushipyard Seaside Supper Spot" style="whiteSpace=wrap;html=1;" parent="rciI87xook90kYw4HxMC-7" vertex="1">
          <mxGeometry x="20" y="100" width="120" height="60" as="geometry" />
        </mxCell>
        <mxCell id="rciI87xook90kYw4HxMC-5" value="Draw 1" style="swimlane;" parent="rciI87xook90kYw4HxMC-7" vertex="1">
          <mxGeometry x="160" y="35" width="160" height="190" as="geometry" />
        </mxCell>
        <mxCell id="rciI87xook90kYw4HxMC-2" value="Upstart Goblin" style="whiteSpace=wrap;html=1;fillColor=#e1d5e7;strokeColor=#9673a6;" parent="rciI87xook90kYw4HxMC-5" vertex="1">
          <mxGeometry x="20" y="40" width="120" height="60" as="geometry" />
        </mxCell>
        <mxCell id="rciI87xook90kYw4HxMC-6" value="Jar of Greed" style="whiteSpace=wrap;html=1;fillColor=#dae8fc;strokeColor=#6c8ebf;" parent="rciI87xook90kYw4HxMC-5" vertex="1">
          <mxGeometry x="20" y="110" width="120" height="60" as="geometry" />
        </mxCell>
        <mxCell id="rciI87xook90kYw4HxMC-4" value="" style="edgeStyle=orthogonalEdgeStyle;rounded=0;orthogonalLoop=1;jettySize=auto;html=1;entryX=0;entryY=0.5;entryDx=0;entryDy=0;" parent="rciI87xook90kYw4HxMC-7" source="rciI87xook90kYw4HxMC-1" target="rciI87xook90kYw4HxMC-5" edge="1">
          <mxGeometry relative="1" as="geometry" />
        </mxCell>
        <mxCell id="rciI87xook90kYw4HxMC-15" value="Double-strike" style="swimlane;" parent="1" vertex="1">
          <mxGeometry x="200" y="430" width="360" height="250" as="geometry" />
        </mxCell>
        <mxCell id="rciI87xook90kYw4HxMC-9" value="Double-strike Support" style="swimlane;" parent="rciI87xook90kYw4HxMC-15" vertex="1">
          <mxGeometry x="185" y="90" width="160" height="120" as="geometry" />
        </mxCell>
        <mxCell id="rciI87xook90kYw4HxMC-8" value="Power of Guardians" style="whiteSpace=wrap;html=1;fillColor=#ffe6cc;strokeColor=#d79b00;" parent="rciI87xook90kYw4HxMC-9" vertex="1">
          <mxGeometry x="20" y="40" width="120" height="60" as="geometry" />
        </mxCell>
        <mxCell id="rciI87xook90kYw4HxMC-12" value="Double-strikers" style="swimlane;" parent="rciI87xook90kYw4HxMC-15" vertex="1">
          <mxGeometry x="15" y="40" width="160" height="190" as="geometry" />
        </mxCell>
        <mxCell id="rciI87xook90kYw4HxMC-10" value="Kachi Kochi Dragon" style="whiteSpace=wrap;html=1;fillColor=#f0a30a;fontColor=#000000;strokeColor=#BD7000;" parent="rciI87xook90kYw4HxMC-12" vertex="1">
          <mxGeometry x="20" y="40" width="120" height="60" as="geometry" />
        </mxCell>
        <mxCell id="rciI87xook90kYw4HxMC-11" value="Gunkan Suship Ikura-class Dreadnought" style="whiteSpace=wrap;html=1;fillColor=#0050ef;fontColor=#ffffff;strokeColor=#001DBC;" parent="rciI87xook90kYw4HxMC-12" vertex="1">
          <mxGeometry x="20" y="110" width="120" height="60" as="geometry" />
        </mxCell>
        <mxCell id="rciI87xook90kYw4HxMC-14" value="" style="shape=link;html=1;rounded=0;entryX=0;entryY=0.5;entryDx=0;entryDy=0;" parent="rciI87xook90kYw4HxMC-15" target="rciI87xook90kYw4HxMC-9" edge="1">
          <mxGeometry width="100" relative="1" as="geometry">
            <mxPoint x="175" y="150" as="sourcePoint" />
            <mxPoint x="165" y="180" as="targetPoint" />
          </mxGeometry>
        </mxCell>
        <mxCell id="pnu3xoXGs5OiqtqfGx1s-27" value="XYZ" style="swimlane;" parent="1" vertex="1">
          <mxGeometry x="600" y="20" width="1430" height="670" as="geometry" />
        </mxCell>
        <mxCell id="GAFAiYKfozU2mNSzuA_l-18" value="Astral Kuiboh Number XYZ" style="swimlane;" parent="pnu3xoXGs5OiqtqfGx1s-27" vertex="1">
          <mxGeometry x="20" y="40" width="1070" height="340" as="geometry" />
        </mxCell>
        <mxCell id="8Kykemo6swlWoFwxvEj6-6" value="Astral Kuriboh" style="whiteSpace=wrap;html=1;fillColor=#e1d5e7;strokeColor=#9673a6;" parent="GAFAiYKfozU2mNSzuA_l-18" vertex="1">
          <mxGeometry x="730" y="40" width="120" height="60" as="geometry" />
        </mxCell>
        <mxCell id="pnu3xoXGs5OiqtqfGx1s-1" value="Generic Level 5 Number XYZ" style="swimlane;" parent="GAFAiYKfozU2mNSzuA_l-18" vertex="1">
          <mxGeometry x="830" y="140" width="220" height="120" as="geometry" />
        </mxCell>
        <mxCell id="pnu3xoXGs5OiqtqfGx1s-14" value="Number 61: Volcasaurus" style="whiteSpace=wrap;html=1;" parent="pnu3xoXGs5OiqtqfGx1s-1" vertex="1">
          <mxGeometry x="50" y="40" width="120" height="60" as="geometry" />
        </mxCell>
        <mxCell id="IsJRNiErvM7OfpVYmuw0-4" value="" style="endArrow=classic;html=1;rounded=0;exitX=0.5;exitY=1;exitDx=0;exitDy=0;entryX=0.5;entryY=0;entryDx=0;entryDy=0;" parent="GAFAiYKfozU2mNSzuA_l-18" source="8Kykemo6swlWoFwxvEj6-6" target="hC7T2YFJt9dHvIczd3i8-16" edge="1">
          <mxGeometry width="50" height="50" relative="1" as="geometry">
            <mxPoint x="340" y="260" as="sourcePoint" />
            <mxPoint x="390" y="210" as="targetPoint" />
          </mxGeometry>
        </mxCell>
        <mxCell id="IsJRNiErvM7OfpVYmuw0-5" value="" style="endArrow=classic;html=1;rounded=0;exitX=0.5;exitY=1;exitDx=0;exitDy=0;entryX=0.5;entryY=0;entryDx=0;entryDy=0;" parent="GAFAiYKfozU2mNSzuA_l-18" source="8Kykemo6swlWoFwxvEj6-6" target="pnu3xoXGs5OiqtqfGx1s-1" edge="1">
          <mxGeometry width="50" height="50" relative="1" as="geometry">
            <mxPoint x="700" y="160" as="sourcePoint" />
            <mxPoint x="750" y="110" as="targetPoint" />
          </mxGeometry>
        </mxCell>
        <mxCell id="hC7T2YFJt9dHvIczd3i8-16" value="Generic Level 4 Number XYZ" style="swimlane;" parent="GAFAiYKfozU2mNSzuA_l-18" vertex="1">
          <mxGeometry x="20" y="140" width="730" height="180" as="geometry" />
        </mxCell>
        <mxCell id="GAFAiYKfozU2mNSzuA_l-1" value="2 Materials" style="swimlane;" parent="hC7T2YFJt9dHvIczd3i8-16" vertex="1">
          <mxGeometry x="20" y="40" width="280" height="120" as="geometry" />
        </mxCell>
        <mxCell id="8Kykemo6swlWoFwxvEj6-5" value="Number 39: Utopia" style="whiteSpace=wrap;html=1;fillColor=#6a00ff;fontColor=#ffffff;strokeColor=#3700CC;" parent="GAFAiYKfozU2mNSzuA_l-1" vertex="1">
          <mxGeometry x="20" y="40" width="120" height="60" as="geometry" />
        </mxCell>
        <mxCell id="GAFAiYKfozU2mNSzuA_l-17" value="Number 70: Malevolent Sin" style="whiteSpace=wrap;html=1;" parent="GAFAiYKfozU2mNSzuA_l-1" vertex="1">
          <mxGeometry x="140" y="40" width="120" height="60" as="geometry" />
        </mxCell>
        <mxCell id="hC7T2YFJt9dHvIczd3i8-1" value="3 Materials" style="swimlane;" parent="hC7T2YFJt9dHvIczd3i8-16" vertex="1">
          <mxGeometry x="310" y="40" width="400" height="120" as="geometry" />
        </mxCell>
        <mxCell id="GAFAiYKfozU2mNSzuA_l-15" value="Number 57: Tri-Head Dust Dragon" style="whiteSpace=wrap;html=1;fillColor=#0050ef;fontColor=#ffffff;strokeColor=#001DBC;" parent="hC7T2YFJt9dHvIczd3i8-1" vertex="1">
          <mxGeometry x="20" y="40" width="120" height="60" as="geometry" />
        </mxCell>
        <mxCell id="IsJRNiErvM7OfpVYmuw0-48" value="Number 104: Masquerade" style="whiteSpace=wrap;html=1;fillColor=#0050ef;fontColor=#ffffff;strokeColor=#001DBC;" parent="hC7T2YFJt9dHvIczd3i8-1" vertex="1">
          <mxGeometry x="260" y="40" width="120" height="60" as="geometry" />
        </mxCell>
        <mxCell id="IsJRNiErvM7OfpVYmuw0-49" value="Number 91: Thunder Spark Dragon" style="whiteSpace=wrap;html=1;fillColor=#0050ef;fontColor=#ffffff;strokeColor=#001DBC;" parent="hC7T2YFJt9dHvIczd3i8-1" vertex="1">
          <mxGeometry x="140" y="40" width="120" height="60" as="geometry" />
        </mxCell>
        <mxCell id="BnYrXJmhmJlXwHzGKP-S-11" value="Gunkan Suship XYZ" style="swimlane;" parent="pnu3xoXGs5OiqtqfGx1s-27" vertex="1">
          <mxGeometry x="1110" y="40" width="300" height="270" as="geometry" />
        </mxCell>
        <mxCell id="IsJRNiErvM7OfpVYmuw0-3" value="" style="edgeStyle=orthogonalEdgeStyle;rounded=0;orthogonalLoop=1;jettySize=auto;html=1;" parent="BnYrXJmhmJlXwHzGKP-S-11" source="BnYrXJmhmJlXwHzGKP-S-1" target="BnYrXJmhmJlXwHzGKP-S-9" edge="1">
          <mxGeometry relative="1" as="geometry" />
        </mxCell>
        <mxCell id="BnYrXJmhmJlXwHzGKP-S-1" value="Gunkan Suship Ikura-class Dreadnought" style="whiteSpace=wrap;html=1;fillColor=#0050ef;fontColor=#ffffff;strokeColor=#001DBC;" parent="BnYrXJmhmJlXwHzGKP-S-11" vertex="1">
          <mxGeometry x="160" y="190" width="120" height="60" as="geometry" />
        </mxCell>
        <mxCell id="BnYrXJmhmJlXwHzGKP-S-2" value="Gunkan Suship Shari" style="whiteSpace=wrap;html=1;fillColor=#dae8fc;strokeColor=#6c8ebf;" parent="BnYrXJmhmJlXwHzGKP-S-11" vertex="1">
          <mxGeometry x="160" y="40" width="120" height="60" as="geometry" />
        </mxCell>
        <mxCell id="BnYrXJmhmJlXwHzGKP-S-5" style="edgeStyle=orthogonalEdgeStyle;rounded=0;orthogonalLoop=1;jettySize=auto;html=1;entryX=0.5;entryY=0;entryDx=0;entryDy=0;" parent="BnYrXJmhmJlXwHzGKP-S-11" source="BnYrXJmhmJlXwHzGKP-S-3" target="BnYrXJmhmJlXwHzGKP-S-1" edge="1">
          <mxGeometry relative="1" as="geometry" />
        </mxCell>
        <mxCell id="BnYrXJmhmJlXwHzGKP-S-3" value="Gunkan Suship Ikura" style="whiteSpace=wrap;html=1;" parent="BnYrXJmhmJlXwHzGKP-S-11" vertex="1">
          <mxGeometry x="160" y="110" width="120" height="60" as="geometry" />
        </mxCell>
        <mxCell id="BnYrXJmhmJlXwHzGKP-S-4" value="" style="shape=link;html=1;rounded=0;exitX=0.5;exitY=1;exitDx=0;exitDy=0;entryX=0.5;entryY=0;entryDx=0;entryDy=0;" parent="BnYrXJmhmJlXwHzGKP-S-11" source="BnYrXJmhmJlXwHzGKP-S-2" target="BnYrXJmhmJlXwHzGKP-S-3" edge="1">
          <mxGeometry width="100" relative="1" as="geometry">
            <mxPoint x="390" y="80" as="sourcePoint" />
            <mxPoint x="490" y="80" as="targetPoint" />
          </mxGeometry>
        </mxCell>
        <mxCell id="BnYrXJmhmJlXwHzGKP-S-6" value="Gunkan Suship Shari" style="whiteSpace=wrap;html=1;fillColor=#dae8fc;strokeColor=#6c8ebf;" parent="BnYrXJmhmJlXwHzGKP-S-11" vertex="1">
          <mxGeometry x="20" y="40" width="120" height="60" as="geometry" />
        </mxCell>
        <mxCell id="BnYrXJmhmJlXwHzGKP-S-7" value="Gunkan Suship Shiranuo" style="whiteSpace=wrap;html=1;" parent="BnYrXJmhmJlXwHzGKP-S-11" vertex="1">
          <mxGeometry x="20" y="110" width="120" height="60" as="geometry" />
        </mxCell>
        <mxCell id="BnYrXJmhmJlXwHzGKP-S-8" value="" style="shape=link;html=1;rounded=0;exitX=0.5;exitY=1;exitDx=0;exitDy=0;entryX=0.5;entryY=0;entryDx=0;entryDy=0;" parent="BnYrXJmhmJlXwHzGKP-S-11" source="BnYrXJmhmJlXwHzGKP-S-6" target="BnYrXJmhmJlXwHzGKP-S-7" edge="1">
          <mxGeometry width="100" relative="1" as="geometry">
            <mxPoint x="50" y="80" as="sourcePoint" />
            <mxPoint x="150" y="80" as="targetPoint" />
          </mxGeometry>
        </mxCell>
        <mxCell id="BnYrXJmhmJlXwHzGKP-S-9" value="Gunkan Suship Shirauo-class Carrier" style="whiteSpace=wrap;html=1;fillColor=#f0a30a;fontColor=#000000;strokeColor=#BD7000;" parent="BnYrXJmhmJlXwHzGKP-S-11" vertex="1">
          <mxGeometry x="20" y="190" width="120" height="60" as="geometry" />
        </mxCell>
        <mxCell id="BnYrXJmhmJlXwHzGKP-S-10" value="" style="edgeStyle=orthogonalEdgeStyle;rounded=0;orthogonalLoop=1;jettySize=auto;html=1;" parent="BnYrXJmhmJlXwHzGKP-S-11" source="BnYrXJmhmJlXwHzGKP-S-7" target="BnYrXJmhmJlXwHzGKP-S-9" edge="1">
          <mxGeometry relative="1" as="geometry" />
        </mxCell>
        <mxCell id="BnYrXJmhmJlXwHzGKP-S-13" value="XYZ Support" style="swimlane;" parent="pnu3xoXGs5OiqtqfGx1s-27" vertex="1">
          <mxGeometry x="1180" y="330" width="160" height="190" as="geometry" />
        </mxCell>
        <mxCell id="BnYrXJmhmJlXwHzGKP-S-14" value="Divine Arsenal AA-ZEUS - Sky Thunder" style="whiteSpace=wrap;html=1;fillColor=#6a00ff;fontColor=#ffffff;strokeColor=#3700CC;" parent="BnYrXJmhmJlXwHzGKP-S-13" vertex="1">
          <mxGeometry x="20" y="45" width="120" height="60" as="geometry" />
        </mxCell>
        <mxCell id="BnYrXJmhmJlXwHzGKP-S-15" value="Heroic Challenger - Extra Sword" style="whiteSpace=wrap;html=1;fillColor=#dae8fc;strokeColor=#6c8ebf;" parent="BnYrXJmhmJlXwHzGKP-S-13" vertex="1">
          <mxGeometry x="20" y="115" width="120" height="60" as="geometry" />
        </mxCell>
        <mxCell id="pnu3xoXGs5OiqtqfGx1s-23" value="Generic Level 4 XYZ" style="swimlane;" parent="pnu3xoXGs5OiqtqfGx1s-27" vertex="1">
          <mxGeometry x="102.5" y="400" width="605" height="250" as="geometry" />
        </mxCell>
        <mxCell id="hC7T2YFJt9dHvIczd3i8-19" value="3 Material" style="swimlane;" parent="pnu3xoXGs5OiqtqfGx1s-23" vertex="1">
          <mxGeometry x="315" y="40" width="275" height="120" as="geometry" />
        </mxCell>
        <mxCell id="pnu3xoXGs5OiqtqfGx1s-76" value="Tin Archduke" style="whiteSpace=wrap;html=1;fillColor=#0050ef;fontColor=#ffffff;strokeColor=#001DBC;" parent="hC7T2YFJt9dHvIczd3i8-19" vertex="1">
          <mxGeometry x="17.5" y="40" width="120" height="60" as="geometry" />
        </mxCell>
        <mxCell id="pnu3xoXGs5OiqtqfGx1s-79" value="Gagagigo the Risen" style="whiteSpace=wrap;html=1;fillColor=#0050ef;fontColor=#ffffff;strokeColor=#001DBC;" parent="hC7T2YFJt9dHvIczd3i8-19" vertex="1">
          <mxGeometry x="137.5" y="40" width="120" height="60" as="geometry" />
        </mxCell>
        <mxCell id="hC7T2YFJt9dHvIczd3i8-22" value="2 Materials" style="swimlane;" parent="pnu3xoXGs5OiqtqfGx1s-23" vertex="1">
          <mxGeometry x="15" y="40" width="285" height="190" as="geometry" />
        </mxCell>
        <mxCell id="pnu3xoXGs5OiqtqfGx1s-68" value="Kachi Kochi Dragon" style="whiteSpace=wrap;html=1;fillColor=#f0a30a;fontColor=#000000;strokeColor=#BD7000;" parent="hC7T2YFJt9dHvIczd3i8-22" vertex="1">
          <mxGeometry x="20" y="40" width="120" height="60" as="geometry" />
        </mxCell>
        <mxCell id="pnu3xoXGs5OiqtqfGx1s-70" value="Cairngorgon, Antiluminescent Knight" style="whiteSpace=wrap;html=1;fillColor=#f0a30a;fontColor=#000000;strokeColor=#BD7000;" parent="hC7T2YFJt9dHvIczd3i8-22" vertex="1">
          <mxGeometry x="140" y="40" width="120" height="60" as="geometry" />
        </mxCell>
        <mxCell id="pnu3xoXGs5OiqtqfGx1s-75" value="Gem-Knight Pearl" style="whiteSpace=wrap;html=1;fillColor=#0050ef;fontColor=#ffffff;strokeColor=#001DBC;" parent="hC7T2YFJt9dHvIczd3i8-22" vertex="1">
          <mxGeometry x="20" y="110" width="120" height="60" as="geometry" />
        </mxCell>
        <mxCell id="pnu3xoXGs5OiqtqfGx1s-77" value="Photon Papilloperative" style="whiteSpace=wrap;html=1;fillColor=#0050ef;fontColor=#ffffff;strokeColor=#001DBC;" parent="hC7T2YFJt9dHvIczd3i8-22" vertex="1">
          <mxGeometry x="140" y="110" width="120" height="60" as="geometry" />
        </mxCell>
        <mxCell id="pnu3xoXGs5OiqtqfGx1s-26" value="Generic Level 5 XYZ" style="swimlane;" parent="pnu3xoXGs5OiqtqfGx1s-27" vertex="1">
          <mxGeometry x="820" y="400" width="280" height="120" as="geometry" />
        </mxCell>
        <mxCell id="hC7T2YFJt9dHvIczd3i8-17" value="Tiras, Keeper of Genesis" style="whiteSpace=wrap;html=1;fillColor=#6a00ff;fontColor=#ffffff;strokeColor=#3700CC;" parent="pnu3xoXGs5OiqtqfGx1s-26" vertex="1">
          <mxGeometry x="20" y="40" width="120" height="60" as="geometry" />
        </mxCell>
        <mxCell id="hC7T2YFJt9dHvIczd3i8-18" value="Adreus, Keeper of Armageddon" style="whiteSpace=wrap;html=1;fillColor=#6a00ff;fontColor=#ffffff;strokeColor=#3700CC;" parent="pnu3xoXGs5OiqtqfGx1s-26" vertex="1">
          <mxGeometry x="140" y="40" width="120" height="60" as="geometry" />
        </mxCell>
        <mxCell id="IsJRNiErvM7OfpVYmuw0-1" value="" style="endArrow=none;dashed=1;html=1;dashPattern=1 3;strokeWidth=2;rounded=0;entryX=0.5;entryY=1;entryDx=0;entryDy=0;exitX=0.5;exitY=0;exitDx=0;exitDy=0;" parent="pnu3xoXGs5OiqtqfGx1s-27" source="pnu3xoXGs5OiqtqfGx1s-26" target="pnu3xoXGs5OiqtqfGx1s-1" edge="1">
          <mxGeometry width="50" height="50" relative="1" as="geometry">
            <mxPoint x="1370" y="780" as="sourcePoint" />
            <mxPoint x="1420" y="730" as="targetPoint" />
          </mxGeometry>
        </mxCell>
        <mxCell id="IsJRNiErvM7OfpVYmuw0-2" value="" style="endArrow=none;dashed=1;html=1;dashPattern=1 3;strokeWidth=2;rounded=0;entryX=0.5;entryY=1;entryDx=0;entryDy=0;exitX=0.503;exitY=0;exitDx=0;exitDy=0;exitPerimeter=0;" parent="pnu3xoXGs5OiqtqfGx1s-27" source="pnu3xoXGs5OiqtqfGx1s-23" target="hC7T2YFJt9dHvIczd3i8-16" edge="1">
          <mxGeometry width="50" height="50" relative="1" as="geometry">
            <mxPoint x="670" y="770" as="sourcePoint" />
            <mxPoint x="810" y="730" as="targetPoint" />
          </mxGeometry>
        </mxCell>
        <mxCell id="IsJRNiErvM7OfpVYmuw0-46" value="Hand" style="swimlane;" parent="1" vertex="1">
          <mxGeometry x="820" y="720" width="890" height="600" as="geometry" />
        </mxCell>
        <mxCell id="IsJRNiErvM7OfpVYmuw0-26" value="Cards (2): XYZ Level 4 (3), Draw 1, Battle effect negate" style="swimlane;" parent="IsJRNiErvM7OfpVYmuw0-46" vertex="1">
          <mxGeometry x="20" y="40" width="580" height="120" as="geometry" />
        </mxCell>
        <mxCell id="IsJRNiErvM7OfpVYmuw0-21" value="Gunkan Suship Shari" style="whiteSpace=wrap;html=1;fillColor=#dae8fc;strokeColor=#6c8ebf;" parent="IsJRNiErvM7OfpVYmuw0-26" vertex="1">
          <mxGeometry x="155" y="40" width="120" height="60" as="geometry" />
        </mxCell>
        <mxCell id="IsJRNiErvM7OfpVYmuw0-22" value="Gunkan Sunship Uni" style="whiteSpace=wrap;html=1;" parent="IsJRNiErvM7OfpVYmuw0-26" vertex="1">
          <mxGeometry x="20" y="40" width="120" height="60" as="geometry" />
        </mxCell>
        <mxCell id="IsJRNiErvM7OfpVYmuw0-23" value="" style="shape=link;html=1;rounded=0;exitX=1;exitY=0.5;exitDx=0;exitDy=0;entryX=0;entryY=0.5;entryDx=0;entryDy=0;" parent="IsJRNiErvM7OfpVYmuw0-26" source="IsJRNiErvM7OfpVYmuw0-22" target="IsJRNiErvM7OfpVYmuw0-21" edge="1">
          <mxGeometry width="100" relative="1" as="geometry">
            <mxPoint x="255" y="90" as="sourcePoint" />
            <mxPoint x="355" y="90" as="targetPoint" />
          </mxGeometry>
        </mxCell>
        <mxCell id="IsJRNiErvM7OfpVYmuw0-47" value="" style="edgeStyle=orthogonalEdgeStyle;rounded=0;orthogonalLoop=1;jettySize=auto;html=1;" parent="IsJRNiErvM7OfpVYmuw0-26" source="IsJRNiErvM7OfpVYmuw0-24" target="GAFAiYKfozU2mNSzuA_l-14" edge="1">
          <mxGeometry relative="1" as="geometry" />
        </mxCell>
        <mxCell id="IsJRNiErvM7OfpVYmuw0-24" value="Gunkan Suship Shari" style="whiteSpace=wrap;html=1;fillColor=#dae8fc;strokeColor=#6c8ebf;" parent="IsJRNiErvM7OfpVYmuw0-26" vertex="1">
          <mxGeometry x="300" y="40" width="120" height="60" as="geometry" />
        </mxCell>
        <mxCell id="IsJRNiErvM7OfpVYmuw0-25" value="" style="edgeStyle=orthogonalEdgeStyle;rounded=0;orthogonalLoop=1;jettySize=auto;html=1;" parent="IsJRNiErvM7OfpVYmuw0-26" source="IsJRNiErvM7OfpVYmuw0-21" target="IsJRNiErvM7OfpVYmuw0-24" edge="1">
          <mxGeometry relative="1" as="geometry" />
        </mxCell>
        <mxCell id="GAFAiYKfozU2mNSzuA_l-14" value="Number 104: Masquerade" style="whiteSpace=wrap;html=1;fillColor=#0050ef;fontColor=#ffffff;strokeColor=#001DBC;" parent="IsJRNiErvM7OfpVYmuw0-26" vertex="1">
          <mxGeometry x="440" y="40" width="120" height="60" as="geometry" />
        </mxCell>
        <mxCell id="IsJRNiErvM7OfpVYmuw0-45" value="Cards (3): Draw 2, Negate 2, Destroy 1 on battle damage" style="swimlane;" parent="IsJRNiErvM7OfpVYmuw0-46" vertex="1">
          <mxGeometry x="20" y="460" width="850" height="120" as="geometry" />
        </mxCell>
        <mxCell id="IsJRNiErvM7OfpVYmuw0-33" value="Gunkan Suship Shari" style="whiteSpace=wrap;html=1;fillColor=#dae8fc;strokeColor=#6c8ebf;" parent="IsJRNiErvM7OfpVYmuw0-45" vertex="1">
          <mxGeometry x="155" y="40" width="120" height="60" as="geometry" />
        </mxCell>
        <mxCell id="IsJRNiErvM7OfpVYmuw0-34" value="Gunkan Sunship Uni" style="whiteSpace=wrap;html=1;" parent="IsJRNiErvM7OfpVYmuw0-45" vertex="1">
          <mxGeometry x="20" y="40" width="120" height="60" as="geometry" />
        </mxCell>
        <mxCell id="IsJRNiErvM7OfpVYmuw0-35" value="" style="shape=link;html=1;rounded=0;exitX=1;exitY=0.5;exitDx=0;exitDy=0;entryX=0;entryY=0.5;entryDx=0;entryDy=0;" parent="IsJRNiErvM7OfpVYmuw0-45" source="IsJRNiErvM7OfpVYmuw0-34" target="IsJRNiErvM7OfpVYmuw0-33" edge="1">
          <mxGeometry width="100" relative="1" as="geometry">
            <mxPoint x="-1125" y="-960" as="sourcePoint" />
            <mxPoint x="-1025" y="-960" as="targetPoint" />
          </mxGeometry>
        </mxCell>
        <mxCell id="IsJRNiErvM7OfpVYmuw0-36" value="Gunkan Suship Shari" style="whiteSpace=wrap;html=1;fillColor=#dae8fc;strokeColor=#6c8ebf;" parent="IsJRNiErvM7OfpVYmuw0-45" vertex="1">
          <mxGeometry x="430" y="40" width="120" height="60" as="geometry" />
        </mxCell>
        <mxCell id="IsJRNiErvM7OfpVYmuw0-40" value="" style="edgeStyle=orthogonalEdgeStyle;rounded=0;orthogonalLoop=1;jettySize=auto;html=1;" parent="IsJRNiErvM7OfpVYmuw0-45" source="IsJRNiErvM7OfpVYmuw0-38" target="IsJRNiErvM7OfpVYmuw0-36" edge="1">
          <mxGeometry relative="1" as="geometry" />
        </mxCell>
        <mxCell id="IsJRNiErvM7OfpVYmuw0-38" value="Gunkan Suship Ikura" style="whiteSpace=wrap;html=1;" parent="IsJRNiErvM7OfpVYmuw0-45" vertex="1">
          <mxGeometry x="290" y="40" width="120" height="60" as="geometry" />
        </mxCell>
        <mxCell id="IsJRNiErvM7OfpVYmuw0-39" value="" style="shape=link;html=1;rounded=0;exitX=1;exitY=0.5;exitDx=0;exitDy=0;entryX=0;entryY=0.5;entryDx=0;entryDy=0;" parent="IsJRNiErvM7OfpVYmuw0-45" source="IsJRNiErvM7OfpVYmuw0-33" target="IsJRNiErvM7OfpVYmuw0-38" edge="1">
          <mxGeometry width="100" relative="1" as="geometry">
            <mxPoint x="200" y="30" as="sourcePoint" />
            <mxPoint x="300" y="30" as="targetPoint" />
          </mxGeometry>
        </mxCell>
        <mxCell id="IsJRNiErvM7OfpVYmuw0-41" value="Gunkan Suship Ikura-class Dreadnought" style="whiteSpace=wrap;html=1;fillColor=#0050ef;fontColor=#ffffff;strokeColor=#001DBC;" parent="IsJRNiErvM7OfpVYmuw0-45" vertex="1">
          <mxGeometry x="570" y="40" width="120" height="60" as="geometry" />
        </mxCell>
        <mxCell id="IsJRNiErvM7OfpVYmuw0-43" value="" style="edgeStyle=orthogonalEdgeStyle;rounded=0;orthogonalLoop=1;jettySize=auto;html=1;" parent="IsJRNiErvM7OfpVYmuw0-45" source="IsJRNiErvM7OfpVYmuw0-36" target="IsJRNiErvM7OfpVYmuw0-41" edge="1">
          <mxGeometry relative="1" as="geometry" />
        </mxCell>
        <mxCell id="IsJRNiErvM7OfpVYmuw0-42" value="Gunkan Suship Uni-class Super-Dreadnought" style="whiteSpace=wrap;html=1;fillColor=#f0a30a;fontColor=#000000;strokeColor=#BD7000;" parent="IsJRNiErvM7OfpVYmuw0-45" vertex="1">
          <mxGeometry x="710" y="40" width="120" height="60" as="geometry" />
        </mxCell>
        <mxCell id="IsJRNiErvM7OfpVYmuw0-44" value="" style="edgeStyle=orthogonalEdgeStyle;rounded=0;orthogonalLoop=1;jettySize=auto;html=1;" parent="IsJRNiErvM7OfpVYmuw0-45" source="IsJRNiErvM7OfpVYmuw0-41" target="IsJRNiErvM7OfpVYmuw0-42" edge="1">
          <mxGeometry relative="1" as="geometry" />
        </mxCell>
        <mxCell id="IsJRNiErvM7OfpVYmuw0-50" value="Damage Rival" style="swimlane;" parent="IsJRNiErvM7OfpVYmuw0-46" vertex="1">
          <mxGeometry x="20" y="180" width="580" height="120" as="geometry" />
        </mxCell>
        <mxCell id="IsJRNiErvM7OfpVYmuw0-58" value="Number 57: Tri-Head Dust Dragon" style="whiteSpace=wrap;html=1;fillColor=#0050ef;fontColor=#ffffff;strokeColor=#001DBC;" parent="IsJRNiErvM7OfpVYmuw0-50" vertex="1">
          <mxGeometry x="440" y="40" width="120" height="60" as="geometry" />
        </mxCell>
        <mxCell id="IsJRNiErvM7OfpVYmuw0-62" value="" style="endArrow=none;dashed=1;html=1;rounded=0;" parent="IsJRNiErvM7OfpVYmuw0-50" edge="1">
          <mxGeometry width="50" height="50" relative="1" as="geometry">
            <mxPoint x="20" y="69.38" as="sourcePoint" />
            <mxPoint x="420" y="69.38" as="targetPoint" />
          </mxGeometry>
        </mxCell>
        <mxCell id="IsJRNiErvM7OfpVYmuw0-59" value="Face-up  Monster Wipe" style="swimlane;" parent="IsJRNiErvM7OfpVYmuw0-46" vertex="1">
          <mxGeometry x="20" y="320" width="580" height="120" as="geometry" />
        </mxCell>
        <mxCell id="IsJRNiErvM7OfpVYmuw0-61" value="Number 91: Thunder Spark Dragon" style="whiteSpace=wrap;html=1;fillColor=#0050ef;fontColor=#ffffff;strokeColor=#001DBC;" parent="IsJRNiErvM7OfpVYmuw0-59" vertex="1">
          <mxGeometry x="440" y="40" width="120" height="60" as="geometry" />
        </mxCell>
        <mxCell id="IsJRNiErvM7OfpVYmuw0-63" value="" style="endArrow=none;dashed=1;html=1;rounded=0;" parent="IsJRNiErvM7OfpVYmuw0-59" edge="1">
          <mxGeometry width="50" height="50" relative="1" as="geometry">
            <mxPoint x="20" y="80" as="sourcePoint" />
            <mxPoint x="420" y="80" as="targetPoint" />
          </mxGeometry>
        </mxCell>
      </root>
    </mxGraphModel>
  </diagram>
  <diagram id="rtC8bloVcLYM7j3fV9hS" name="Floowandereeze">
    <mxGraphModel dx="1034" dy="1752" grid="1" gridSize="10" guides="1" tooltips="1" connect="1" arrows="1" fold="1" page="1" pageScale="1" pageWidth="850" pageHeight="1100" math="0" shadow="0">
      <root>
        <mxCell id="0" />
        <mxCell id="1" parent="0" />
        <mxCell id="_eYxeaRYzBX5TCJdiild-1" value="Floowandereeze &amp;amp; Snowl" style="whiteSpace=wrap;html=1;fillColor=#e1d5e7;strokeColor=#9673a6;" parent="1" vertex="1">
          <mxGeometry x="40" y="-1050" width="120" height="60" as="geometry" />
        </mxCell>
        <mxCell id="WqN_qQ-_4ZWQsjKhy5V5-1" value="Floowandereeze &amp;amp; Robina" style="whiteSpace=wrap;html=1;fillColor=#ffe6cc;strokeColor=#d79b00;" parent="1" vertex="1">
          <mxGeometry x="170" y="-1050" width="120" height="60" as="geometry" />
        </mxCell>
        <mxCell id="WqN_qQ-_4ZWQsjKhy5V5-2" value="Floowandereeze &amp;amp; Eglen" style="whiteSpace=wrap;html=1;fillColor=#ffe6cc;strokeColor=#d79b00;" parent="1" vertex="1">
          <mxGeometry x="305" y="-1050" width="120" height="60" as="geometry" />
        </mxCell>
        <mxCell id="WqN_qQ-_4ZWQsjKhy5V5-10" value="Robina Search" style="swimlane;" parent="1" vertex="1">
          <mxGeometry x="875" y="-1050" width="470" height="330" as="geometry" />
        </mxCell>
        <mxCell id="tqiG6KCgSUzWowchuhjl-3" value="" style="edgeStyle=orthogonalEdgeStyle;rounded=0;orthogonalLoop=1;jettySize=auto;html=1;entryX=0;entryY=0.5;entryDx=0;entryDy=0;" parent="WqN_qQ-_4ZWQsjKhy5V5-10" source="WqN_qQ-_4ZWQsjKhy5V5-5" target="WqN_qQ-_4ZWQsjKhy5V5-7" edge="1">
          <mxGeometry relative="1" as="geometry" />
        </mxCell>
        <mxCell id="WqN_qQ-_4ZWQsjKhy5V5-5" value="Floowandereeze &amp;amp; Robina" style="whiteSpace=wrap;html=1;fillColor=#ffe6cc;strokeColor=#d79b00;" parent="WqN_qQ-_4ZWQsjKhy5V5-10" vertex="1">
          <mxGeometry x="20" y="140" width="120" height="60" as="geometry" />
        </mxCell>
        <mxCell id="WqN_qQ-_4ZWQsjKhy5V5-7" value="Level 4 or lower Winged Beast" style="swimlane;" parent="WqN_qQ-_4ZWQsjKhy5V5-10" vertex="1">
          <mxGeometry x="170" y="40" width="275" height="260" as="geometry" />
        </mxCell>
        <mxCell id="WqN_qQ-_4ZWQsjKhy5V5-12" value="Floowandereeze &amp;amp; Eglen" style="whiteSpace=wrap;html=1;fillColor=#ffe6cc;strokeColor=#d79b00;" parent="WqN_qQ-_4ZWQsjKhy5V5-7" vertex="1">
          <mxGeometry x="20" y="40" width="120" height="60" as="geometry" />
        </mxCell>
        <mxCell id="wAJ8-cilT17N_fLkUdqA-11" value="Blackwing - Gale the Whrilwind" style="whiteSpace=wrap;html=1;fillColor=#ffe6cc;strokeColor=#d79b00;" parent="WqN_qQ-_4ZWQsjKhy5V5-7" vertex="1">
          <mxGeometry x="20" y="110" width="120" height="60" as="geometry" />
        </mxCell>
        <mxCell id="wAJ8-cilT17N_fLkUdqA-18" value="Shield Wing" style="whiteSpace=wrap;html=1;fillColor=#ffe6cc;strokeColor=#d79b00;" parent="WqN_qQ-_4ZWQsjKhy5V5-7" vertex="1">
          <mxGeometry x="20" y="180" width="120" height="60" as="geometry" />
        </mxCell>
        <mxCell id="wAJ8-cilT17N_fLkUdqA-20" value="Phantom Gryphon" style="whiteSpace=wrap;html=1;fillColor=#dae8fc;strokeColor=#6c8ebf;" parent="WqN_qQ-_4ZWQsjKhy5V5-7" vertex="1">
          <mxGeometry x="140" y="40" width="120" height="60" as="geometry" />
        </mxCell>
        <mxCell id="WqN_qQ-_4ZWQsjKhy5V5-11" value="Eglen Search" style="swimlane;" parent="1" vertex="1">
          <mxGeometry x="875" y="-700" width="460" height="180" as="geometry" />
        </mxCell>
        <mxCell id="tqiG6KCgSUzWowchuhjl-4" style="edgeStyle=orthogonalEdgeStyle;rounded=0;orthogonalLoop=1;jettySize=auto;html=1;entryX=0;entryY=0.5;entryDx=0;entryDy=0;" parent="WqN_qQ-_4ZWQsjKhy5V5-11" source="WqN_qQ-_4ZWQsjKhy5V5-3" target="WqN_qQ-_4ZWQsjKhy5V5-4" edge="1">
          <mxGeometry relative="1" as="geometry" />
        </mxCell>
        <mxCell id="WqN_qQ-_4ZWQsjKhy5V5-3" value="Floowandereeze &amp;amp; Eglen" style="whiteSpace=wrap;html=1;fillColor=#ffe6cc;strokeColor=#d79b00;" parent="WqN_qQ-_4ZWQsjKhy5V5-11" vertex="1">
          <mxGeometry x="20" y="70" width="120" height="60" as="geometry" />
        </mxCell>
        <mxCell id="WqN_qQ-_4ZWQsjKhy5V5-4" value="Level 7 or higher Winged Beast" style="swimlane;" parent="WqN_qQ-_4ZWQsjKhy5V5-11" vertex="1">
          <mxGeometry x="157.5" y="40" width="282.5" height="120" as="geometry" />
        </mxCell>
        <mxCell id="WqN_qQ-_4ZWQsjKhy5V5-13" value="Floowandereeze &amp;amp; Snowl" style="whiteSpace=wrap;html=1;fillColor=#e1d5e7;strokeColor=#9673a6;" parent="WqN_qQ-_4ZWQsjKhy5V5-4" vertex="1">
          <mxGeometry x="25" y="40" width="120" height="60" as="geometry" />
        </mxCell>
        <mxCell id="wAJ8-cilT17N_fLkUdqA-6" value="Floowandereeze &amp;amp; Empen" style="whiteSpace=wrap;html=1;fillColor=#ffe6cc;strokeColor=#d79b00;" parent="WqN_qQ-_4ZWQsjKhy5V5-4" vertex="1">
          <mxGeometry x="145" y="40" width="120" height="60" as="geometry" />
        </mxCell>
        <mxCell id="WqN_qQ-_4ZWQsjKhy5V5-21" value="Snowl Sequence" style="swimlane;" parent="1" vertex="1">
          <mxGeometry x="40" y="-960" width="440" height="120" as="geometry" />
        </mxCell>
        <mxCell id="WqN_qQ-_4ZWQsjKhy5V5-14" value="Floowandereeze &amp;amp; Robina" style="whiteSpace=wrap;html=1;fillColor=#ffe6cc;strokeColor=#d79b00;" parent="WqN_qQ-_4ZWQsjKhy5V5-21" vertex="1">
          <mxGeometry x="20" y="40" width="120" height="60" as="geometry" />
        </mxCell>
        <mxCell id="WqN_qQ-_4ZWQsjKhy5V5-15" value="Floowandereeze &amp;amp; Eglen" style="whiteSpace=wrap;html=1;fillColor=#ffe6cc;strokeColor=#d79b00;" parent="WqN_qQ-_4ZWQsjKhy5V5-21" vertex="1">
          <mxGeometry x="160" y="40" width="120" height="60" as="geometry" />
        </mxCell>
        <mxCell id="WqN_qQ-_4ZWQsjKhy5V5-17" value="" style="edgeStyle=orthogonalEdgeStyle;rounded=0;orthogonalLoop=1;jettySize=auto;html=1;" parent="WqN_qQ-_4ZWQsjKhy5V5-21" source="WqN_qQ-_4ZWQsjKhy5V5-14" target="WqN_qQ-_4ZWQsjKhy5V5-15" edge="1">
          <mxGeometry relative="1" as="geometry" />
        </mxCell>
        <mxCell id="WqN_qQ-_4ZWQsjKhy5V5-16" value="Floowandereeze &amp;amp; Snowl" style="whiteSpace=wrap;html=1;fillColor=#e1d5e7;strokeColor=#9673a6;" parent="WqN_qQ-_4ZWQsjKhy5V5-21" vertex="1">
          <mxGeometry x="300" y="40" width="120" height="60" as="geometry" />
        </mxCell>
        <mxCell id="WqN_qQ-_4ZWQsjKhy5V5-18" value="" style="edgeStyle=orthogonalEdgeStyle;rounded=0;orthogonalLoop=1;jettySize=auto;html=1;" parent="WqN_qQ-_4ZWQsjKhy5V5-21" source="WqN_qQ-_4ZWQsjKhy5V5-15" target="WqN_qQ-_4ZWQsjKhy5V5-16" edge="1">
          <mxGeometry relative="1" as="geometry" />
        </mxCell>
        <mxCell id="wAJ8-cilT17N_fLkUdqA-7" value="Floowandereeze &amp;amp; Empen" style="whiteSpace=wrap;html=1;fillColor=#ffe6cc;strokeColor=#d79b00;" parent="1" vertex="1">
          <mxGeometry x="440" y="-1050" width="120" height="60" as="geometry" />
        </mxCell>
        <mxCell id="wAJ8-cilT17N_fLkUdqA-26" value="Floowandereeze &amp;amp; Stri" style="whiteSpace=wrap;html=1;fillColor=#dae8fc;strokeColor=#6c8ebf;" parent="1" vertex="1">
          <mxGeometry x="570" y="-1050" width="120" height="60" as="geometry" />
        </mxCell>
        <mxCell id="wAJ8-cilT17N_fLkUdqA-36" value="Floowandereeze &amp;amp; Toccan" style="whiteSpace=wrap;html=1;" parent="1" vertex="1">
          <mxGeometry x="700" y="-1050" width="120" height="60" as="geometry" />
        </mxCell>
        <mxCell id="90zqy2qWTWqUvlPn7K04-2" value="Empen Search" style="swimlane;" parent="1" vertex="1">
          <mxGeometry x="870" y="-500" width="480" height="230" as="geometry" />
        </mxCell>
        <mxCell id="wAJ8-cilT17N_fLkUdqA-8" value="Floowandereeze &amp;amp; Empen" style="whiteSpace=wrap;html=1;fillColor=#ffe6cc;strokeColor=#d79b00;" parent="90zqy2qWTWqUvlPn7K04-2" vertex="1">
          <mxGeometry x="20" y="95" width="120" height="60" as="geometry" />
        </mxCell>
        <mxCell id="wAJ8-cilT17N_fLkUdqA-9" value="&quot;Floowandereeze&quot; Spell/Trap" style="swimlane;" parent="90zqy2qWTWqUvlPn7K04-2" vertex="1">
          <mxGeometry x="170" y="40" width="290" height="170" as="geometry" />
        </mxCell>
        <mxCell id="wAJ8-cilT17N_fLkUdqA-38" value="Floowandereeze and the Magnificent Map" style="whiteSpace=wrap;html=1;fillColor=#dae8fc;strokeColor=#6c8ebf;" parent="wAJ8-cilT17N_fLkUdqA-9" vertex="1">
          <mxGeometry x="20" y="40" width="120" height="60" as="geometry" />
        </mxCell>
        <mxCell id="wAJ8-cilT17N_fLkUdqA-39" value="Floowandereeze and the Scary Sea" style="whiteSpace=wrap;html=1;fillColor=#dae8fc;strokeColor=#6c8ebf;" parent="wAJ8-cilT17N_fLkUdqA-9" vertex="1">
          <mxGeometry x="150" y="40" width="120" height="60" as="geometry" />
        </mxCell>
        <mxCell id="90zqy2qWTWqUvlPn7K04-1" value="Floowandereeze and the Dreaming Town" style="whiteSpace=wrap;html=1;" parent="wAJ8-cilT17N_fLkUdqA-9" vertex="1">
          <mxGeometry x="150" y="100" width="120" height="60" as="geometry" />
        </mxCell>
        <mxCell id="90zqy2qWTWqUvlPn7K04-3" value="" style="edgeStyle=orthogonalEdgeStyle;rounded=0;orthogonalLoop=1;jettySize=auto;html=1;entryX=0;entryY=0.5;entryDx=0;entryDy=0;" parent="90zqy2qWTWqUvlPn7K04-2" source="wAJ8-cilT17N_fLkUdqA-8" target="wAJ8-cilT17N_fLkUdqA-9" edge="1">
          <mxGeometry relative="1" as="geometry" />
        </mxCell>
        <mxCell id="90zqy2qWTWqUvlPn7K04-13" value="Empen Sequence" style="swimlane;" parent="1" vertex="1">
          <mxGeometry x="40" y="-820" width="440" height="120" as="geometry" />
        </mxCell>
        <mxCell id="90zqy2qWTWqUvlPn7K04-4" value="Floowandereeze &amp;amp; Empen" style="whiteSpace=wrap;html=1;fillColor=#ffe6cc;strokeColor=#d79b00;" parent="90zqy2qWTWqUvlPn7K04-13" vertex="1">
          <mxGeometry x="300" y="40" width="120" height="60" as="geometry" />
        </mxCell>
        <mxCell id="90zqy2qWTWqUvlPn7K04-9" value="Floowandereeze &amp;amp; Robina" style="whiteSpace=wrap;html=1;fillColor=#ffe6cc;strokeColor=#d79b00;" parent="90zqy2qWTWqUvlPn7K04-13" vertex="1">
          <mxGeometry x="15" y="40" width="120" height="60" as="geometry" />
        </mxCell>
        <mxCell id="90zqy2qWTWqUvlPn7K04-10" value="Floowandereeze &amp;amp; Eglen" style="whiteSpace=wrap;html=1;fillColor=#ffe6cc;strokeColor=#d79b00;" parent="90zqy2qWTWqUvlPn7K04-13" vertex="1">
          <mxGeometry x="155" y="40" width="120" height="60" as="geometry" />
        </mxCell>
        <mxCell id="90zqy2qWTWqUvlPn7K04-11" value="" style="edgeStyle=orthogonalEdgeStyle;rounded=0;orthogonalLoop=1;jettySize=auto;html=1;" parent="90zqy2qWTWqUvlPn7K04-13" source="90zqy2qWTWqUvlPn7K04-9" target="90zqy2qWTWqUvlPn7K04-10" edge="1">
          <mxGeometry relative="1" as="geometry" />
        </mxCell>
        <mxCell id="90zqy2qWTWqUvlPn7K04-12" value="" style="edgeStyle=orthogonalEdgeStyle;rounded=0;orthogonalLoop=1;jettySize=auto;html=1;entryX=0;entryY=0.5;entryDx=0;entryDy=0;" parent="90zqy2qWTWqUvlPn7K04-13" source="90zqy2qWTWqUvlPn7K04-10" target="90zqy2qWTWqUvlPn7K04-4" edge="1">
          <mxGeometry relative="1" as="geometry">
            <mxPoint x="295" y="70" as="targetPoint" />
          </mxGeometry>
        </mxCell>
        <mxCell id="yO-CQZPiGZvm4pFWd0bB-5" value="Tribute Support" style="swimlane;" parent="1" vertex="1">
          <mxGeometry x="490" y="-960" width="160" height="120" as="geometry" />
        </mxCell>
        <mxCell id="yO-CQZPiGZvm4pFWd0bB-6" value="Soul Exchange" style="whiteSpace=wrap;html=1;fillColor=#dae8fc;strokeColor=#6c8ebf;" parent="yO-CQZPiGZvm4pFWd0bB-5" vertex="1">
          <mxGeometry x="20" y="40" width="120" height="60" as="geometry" />
        </mxCell>
        <mxCell id="tqiG6KCgSUzWowchuhjl-1" value="Other Winged Beast" style="swimlane;" parent="1" vertex="1">
          <mxGeometry x="665" y="-960" width="160" height="130" as="geometry" />
        </mxCell>
        <mxCell id="tqiG6KCgSUzWowchuhjl-2" value="Raiza the Storm Monarch" style="whiteSpace=wrap;html=1;fillColor=#ffe6cc;strokeColor=#d79b00;" parent="tqiG6KCgSUzWowchuhjl-1" vertex="1">
          <mxGeometry x="20" y="50" width="120" height="60" as="geometry" />
        </mxCell>
      </root>
    </mxGraphModel>
  </diagram>
  <diagram id="Qz7vCscXwDI27xFOmgW6" name="Heroic">
    <mxGraphModel dx="-666" dy="652" grid="1" gridSize="10" guides="1" tooltips="1" connect="1" arrows="1" fold="1" page="1" pageScale="1" pageWidth="850" pageHeight="1100" math="0" shadow="0">
      <root>
        <mxCell id="0" />
        <mxCell id="1" parent="0" />
        <mxCell id="s19yZ76gr4-OTxgtI--Y-1" style="edgeStyle=orthogonalEdgeStyle;rounded=0;orthogonalLoop=1;jettySize=auto;html=1;startArrow=none;startFill=0;endArrow=classic;endFill=1;" parent="1" source="s19yZ76gr4-OTxgtI--Y-2" target="s19yZ76gr4-OTxgtI--Y-3" edge="1">
          <mxGeometry relative="1" as="geometry" />
        </mxCell>
        <mxCell id="s19yZ76gr4-OTxgtI--Y-2" value="Foolish Burial" style="whiteSpace=wrap;html=1;fillColor=#e1d5e7;strokeColor=#9673a6;" parent="1" vertex="1">
          <mxGeometry x="1810" y="470" width="120" height="60" as="geometry" />
        </mxCell>
        <mxCell id="s19yZ76gr4-OTxgtI--Y-3" value="Heroic Challenger - Double Lance" style="whiteSpace=wrap;html=1;fillColor=#dae8fc;strokeColor=#6c8ebf;" parent="1" vertex="1">
          <mxGeometry x="1970" y="470" width="120" height="60" as="geometry" />
        </mxCell>
      </root>
    </mxGraphModel>
  </diagram>
  <diagram id="k3XtddSRICdn5ckGxZP9" name="Magikey">
    <mxGraphModel dx="1711" dy="1055" grid="1" gridSize="10" guides="1" tooltips="1" connect="1" arrows="1" fold="1" page="1" pageScale="1" pageWidth="850" pageHeight="1100" math="0" shadow="0">
      <root>
        <mxCell id="0" />
        <mxCell id="1" parent="0" />
        <mxCell id="J6CSg8eaZkPXc1e662Wj-4" value="&quot;Magikey&quot; monster or Normal Monster" style="swimlane;" parent="1" vertex="1">
          <mxGeometry x="460" y="30" width="740" height="370" as="geometry" />
        </mxCell>
        <mxCell id="J6CSg8eaZkPXc1e662Wj-11" value="Earth" style="swimlane;" parent="J6CSg8eaZkPXc1e662Wj-4" vertex="1">
          <mxGeometry x="20" y="40" width="160" height="180" as="geometry" />
        </mxCell>
        <mxCell id="J6CSg8eaZkPXc1e662Wj-7" value="Gemini Elf" style="whiteSpace=wrap;html=1;fillColor=#ffe6cc;strokeColor=#d79b00;" parent="J6CSg8eaZkPXc1e662Wj-11" vertex="1">
          <mxGeometry x="20" y="40" width="120" height="60" as="geometry" />
        </mxCell>
        <mxCell id="J6CSg8eaZkPXc1e662Wj-12" value="Gene-Warped Warwolf" style="whiteSpace=wrap;html=1;fillColor=#dae8fc;strokeColor=#6c8ebf;" parent="J6CSg8eaZkPXc1e662Wj-11" vertex="1">
          <mxGeometry x="20" y="100" width="120" height="60" as="geometry" />
        </mxCell>
        <mxCell id="J6CSg8eaZkPXc1e662Wj-13" value="Water" style="swimlane;" parent="J6CSg8eaZkPXc1e662Wj-4" vertex="1">
          <mxGeometry x="200" y="40" width="160" height="180" as="geometry" />
        </mxCell>
        <mxCell id="J6CSg8eaZkPXc1e662Wj-24" value="Megalosmasher X" style="whiteSpace=wrap;html=1;fillColor=#dae8fc;strokeColor=#6c8ebf;" parent="J6CSg8eaZkPXc1e662Wj-13" vertex="1">
          <mxGeometry x="20" y="40" width="120" height="60" as="geometry" />
        </mxCell>
        <mxCell id="J6CSg8eaZkPXc1e662Wj-14" value="Aqua Madoor" style="whiteSpace=wrap;html=1;fillColor=#dae8fc;strokeColor=#6c8ebf;" parent="J6CSg8eaZkPXc1e662Wj-13" vertex="1">
          <mxGeometry x="20" y="100" width="120" height="60" as="geometry" />
        </mxCell>
        <mxCell id="J6CSg8eaZkPXc1e662Wj-15" value="Dark" style="swimlane;" parent="J6CSg8eaZkPXc1e662Wj-4" vertex="1">
          <mxGeometry x="380" y="40" width="160" height="250" as="geometry" />
        </mxCell>
        <mxCell id="J6CSg8eaZkPXc1e662Wj-5" value="Clavkiys, the Magikey Skyblaster" style="whiteSpace=wrap;html=1;fillColor=#dae8fc;strokeColor=#6c8ebf;" parent="J6CSg8eaZkPXc1e662Wj-15" vertex="1">
          <mxGeometry x="20" y="40" width="120" height="60" as="geometry" />
        </mxCell>
        <mxCell id="J6CSg8eaZkPXc1e662Wj-22" value="Mystery Shell Dragon" style="whiteSpace=wrap;html=1;fillColor=#dae8fc;strokeColor=#6c8ebf;" parent="J6CSg8eaZkPXc1e662Wj-15" vertex="1">
          <mxGeometry x="20" y="110" width="120" height="60" as="geometry" />
        </mxCell>
        <mxCell id="J6CSg8eaZkPXc1e662Wj-16" value="Vorse Raider" style="whiteSpace=wrap;html=1;fillColor=#dae8fc;strokeColor=#6c8ebf;" parent="J6CSg8eaZkPXc1e662Wj-15" vertex="1">
          <mxGeometry x="20" y="170" width="120" height="60" as="geometry" />
        </mxCell>
        <mxCell id="J6CSg8eaZkPXc1e662Wj-17" value="Light" style="swimlane;" parent="J6CSg8eaZkPXc1e662Wj-4" vertex="1">
          <mxGeometry x="560" y="40" width="160" height="190" as="geometry" />
        </mxCell>
        <mxCell id="J6CSg8eaZkPXc1e662Wj-19" value="Alexandrite Dragon" style="whiteSpace=wrap;html=1;fillColor=#dae8fc;strokeColor=#6c8ebf;" parent="J6CSg8eaZkPXc1e662Wj-17" vertex="1">
          <mxGeometry x="20" y="110" width="120" height="60" as="geometry" />
        </mxCell>
        <mxCell id="J6CSg8eaZkPXc1e662Wj-6" value="Maginificent Magikey Mafteal" style="whiteSpace=wrap;html=1;fillColor=#dae8fc;strokeColor=#6c8ebf;" parent="J6CSg8eaZkPXc1e662Wj-17" vertex="1">
          <mxGeometry x="20" y="40" width="120" height="60" as="geometry" />
        </mxCell>
        <mxCell id="qbupHraFLRX2WD-IEX-6-6" value="Fire" style="swimlane;" parent="J6CSg8eaZkPXc1e662Wj-4" vertex="1">
          <mxGeometry x="20" y="230" width="160" height="120" as="geometry" />
        </mxCell>
        <mxCell id="J6CSg8eaZkPXc1e662Wj-9" value="Gunkan Suship Shari" style="whiteSpace=wrap;html=1;fillColor=#dae8fc;strokeColor=#6c8ebf;" parent="qbupHraFLRX2WD-IEX-6-6" vertex="1">
          <mxGeometry x="20" y="40" width="120" height="60" as="geometry" />
        </mxCell>
        <mxCell id="qbupHraFLRX2WD-IEX-6-7" value="Wind" style="swimlane;" parent="J6CSg8eaZkPXc1e662Wj-4" vertex="1">
          <mxGeometry x="200" y="230" width="160" height="120" as="geometry" />
        </mxCell>
        <mxCell id="qbupHraFLRX2WD-IEX-6-8" value="Griffin..." style="whiteSpace=wrap;html=1;" parent="qbupHraFLRX2WD-IEX-6-7" vertex="1">
          <mxGeometry x="20" y="40" width="120" height="60" as="geometry" />
        </mxCell>
        <mxCell id="UT5xL9TsgXSUPtzigOF4-6" value="Synchro" style="swimlane;" parent="1" vertex="1">
          <mxGeometry x="460" y="420" width="440" height="120" as="geometry" />
        </mxCell>
        <mxCell id="UT5xL9TsgXSUPtzigOF4-1" value="Clavkiys, the Magikey Skyblaster" style="whiteSpace=wrap;html=1;fillColor=#dae8fc;strokeColor=#6c8ebf;" parent="UT5xL9TsgXSUPtzigOF4-6" vertex="1">
          <mxGeometry x="20" y="40" width="120" height="60" as="geometry" />
        </mxCell>
        <mxCell id="UT5xL9TsgXSUPtzigOF4-2" value="Magikey Dragon - Andrabime" style="whiteSpace=wrap;html=1;fillColor=#6a00ff;fontColor=#ffffff;strokeColor=#3700CC;" parent="UT5xL9TsgXSUPtzigOF4-6" vertex="1">
          <mxGeometry x="300" y="40" width="120" height="60" as="geometry" />
        </mxCell>
        <mxCell id="UT5xL9TsgXSUPtzigOF4-5" value="" style="edgeStyle=orthogonalEdgeStyle;rounded=0;orthogonalLoop=1;jettySize=auto;html=1;" parent="UT5xL9TsgXSUPtzigOF4-6" source="UT5xL9TsgXSUPtzigOF4-3" target="UT5xL9TsgXSUPtzigOF4-2" edge="1">
          <mxGeometry relative="1" as="geometry" />
        </mxCell>
        <mxCell id="UT5xL9TsgXSUPtzigOF4-3" value="Maginificent Magikey Mafteal" style="whiteSpace=wrap;html=1;fillColor=#dae8fc;strokeColor=#6c8ebf;" parent="UT5xL9TsgXSUPtzigOF4-6" vertex="1">
          <mxGeometry x="160" y="40" width="120" height="60" as="geometry" />
        </mxCell>
        <mxCell id="UT5xL9TsgXSUPtzigOF4-4" value="" style="shape=link;html=1;rounded=0;exitX=1;exitY=0.5;exitDx=0;exitDy=0;entryX=0;entryY=0.5;entryDx=0;entryDy=0;" parent="UT5xL9TsgXSUPtzigOF4-6" source="UT5xL9TsgXSUPtzigOF4-1" target="UT5xL9TsgXSUPtzigOF4-3" edge="1">
          <mxGeometry width="100" relative="1" as="geometry">
            <mxPoint x="220" y="-90" as="sourcePoint" />
            <mxPoint x="320" y="-90" as="targetPoint" />
          </mxGeometry>
        </mxCell>
        <mxCell id="UT5xL9TsgXSUPtzigOF4-7" value="Monsters" style="swimlane;" parent="1" vertex="1">
          <mxGeometry x="20" y="20" width="280" height="120" as="geometry" />
        </mxCell>
        <mxCell id="J6CSg8eaZkPXc1e662Wj-1" value="Clavkiys, the Magikey Skyblaster" style="whiteSpace=wrap;html=1;fillColor=#dae8fc;strokeColor=#6c8ebf;" parent="UT5xL9TsgXSUPtzigOF4-7" vertex="1">
          <mxGeometry x="20" y="40" width="120" height="60" as="geometry" />
        </mxCell>
        <mxCell id="J6CSg8eaZkPXc1e662Wj-3" value="Maginificent Magikey Mafteal" style="whiteSpace=wrap;html=1;fillColor=#dae8fc;strokeColor=#6c8ebf;" parent="UT5xL9TsgXSUPtzigOF4-7" vertex="1">
          <mxGeometry x="140" y="40" width="120" height="60" as="geometry" />
        </mxCell>
        <mxCell id="uOeM7xrh9b_xjBoLv8GL-6" value="Graveyard" style="rhombus;whiteSpace=wrap;html=1;" parent="1" vertex="1">
          <mxGeometry x="20" y="240" width="80" height="80" as="geometry" />
        </mxCell>
        <mxCell id="uOeM7xrh9b_xjBoLv8GL-7" value="Ritual" style="swimlane;" parent="1" vertex="1">
          <mxGeometry x="450" y="560" width="200" height="200" as="geometry" />
        </mxCell>
        <mxCell id="uOeM7xrh9b_xjBoLv8GL-8" value="XYZ" style="swimlane;" parent="1" vertex="1">
          <mxGeometry x="680" y="560" width="200" height="200" as="geometry" />
        </mxCell>
        <mxCell id="uOeM7xrh9b_xjBoLv8GL-9" value="Fusion" style="swimlane;" parent="1" vertex="1">
          <mxGeometry x="990" y="490" width="200" height="200" as="geometry" />
        </mxCell>
        <mxCell id="uOeM7xrh9b_xjBoLv8GL-10" value="Warrior" style="rhombus;whiteSpace=wrap;html=1;" parent="1" vertex="1">
          <mxGeometry x="260" y="160" width="80" height="80" as="geometry" />
        </mxCell>
        <mxCell id="EH2oKgrsWkuopbpP2Q7I-3" value="Monster" style="rhombus;whiteSpace=wrap;html=1;" vertex="1" parent="1">
          <mxGeometry x="20" y="160" width="80" height="80" as="geometry" />
        </mxCell>
        <mxCell id="tdmh4_cuZucrNtdNP20V-6" value="Link" style="swimlane;" vertex="1" parent="1">
          <mxGeometry x="445" y="790" width="470" height="220" as="geometry" />
        </mxCell>
        <mxCell id="tdmh4_cuZucrNtdNP20V-1" value="Mekk-Knight Crusadia Avramax" style="whiteSpace=wrap;html=1;fillColor=#6a00ff;fontColor=#ffffff;strokeColor=#3700CC;" vertex="1" parent="tdmh4_cuZucrNtdNP20V-6">
          <mxGeometry x="320" y="40" width="120" height="60" as="geometry" />
        </mxCell>
        <mxCell id="tdmh4_cuZucrNtdNP20V-2" value="Link Spider" style="whiteSpace=wrap;html=1;fillColor=#f0a30a;fontColor=#000000;strokeColor=#BD7000;" vertex="1" parent="tdmh4_cuZucrNtdNP20V-6">
          <mxGeometry x="20" y="40" width="120" height="60" as="geometry" />
        </mxCell>
        <mxCell id="tdmh4_cuZucrNtdNP20V-5" value="" style="edgeStyle=orthogonalEdgeStyle;rounded=0;orthogonalLoop=1;jettySize=auto;html=1;" edge="1" parent="tdmh4_cuZucrNtdNP20V-6" source="tdmh4_cuZucrNtdNP20V-3" target="tdmh4_cuZucrNtdNP20V-1">
          <mxGeometry relative="1" as="geometry" />
        </mxCell>
        <mxCell id="tdmh4_cuZucrNtdNP20V-3" value="Crystron Halqifibrax" style="whiteSpace=wrap;html=1;fillColor=#6a00ff;strokeColor=#3700CC;fontColor=#ffffff;" vertex="1" parent="tdmh4_cuZucrNtdNP20V-6">
          <mxGeometry x="170" y="40" width="120" height="60" as="geometry" />
        </mxCell>
        <mxCell id="tdmh4_cuZucrNtdNP20V-4" value="" style="edgeStyle=orthogonalEdgeStyle;rounded=0;orthogonalLoop=1;jettySize=auto;html=1;" edge="1" parent="tdmh4_cuZucrNtdNP20V-6" source="tdmh4_cuZucrNtdNP20V-2" target="tdmh4_cuZucrNtdNP20V-3">
          <mxGeometry relative="1" as="geometry" />
        </mxCell>
        <mxCell id="qRR_ABUIVhB7q4Jd7qGk-3" value="Tuner" style="rhombus;whiteSpace=wrap;html=1;" vertex="1" parent="tdmh4_cuZucrNtdNP20V-6">
          <mxGeometry x="230" y="120" width="80" height="80" as="geometry" />
        </mxCell>
        <mxCell id="qRR_ABUIVhB7q4Jd7qGk-4" value="Normal Monster" style="rhombus;whiteSpace=wrap;html=1;" vertex="1" parent="tdmh4_cuZucrNtdNP20V-6">
          <mxGeometry x="150" y="120" width="80" height="80" as="geometry" />
        </mxCell>
        <mxCell id="qRR_ABUIVhB7q4Jd7qGk-1" value="Tuner" style="rhombus;whiteSpace=wrap;html=1;" vertex="1" parent="1">
          <mxGeometry x="180" y="160" width="80" height="80" as="geometry" />
        </mxCell>
        <mxCell id="qRR_ABUIVhB7q4Jd7qGk-2" value="Normal Monster" style="rhombus;whiteSpace=wrap;html=1;" vertex="1" parent="1">
          <mxGeometry x="100" y="160" width="80" height="80" as="geometry" />
        </mxCell>
      </root>
    </mxGraphModel>
  </diagram>
  <diagram id="G52r87CLR_I04fMwUl3z" name="Mist Valley">
    <mxGraphModel dx="1369" dy="844" grid="1" gridSize="10" guides="1" tooltips="1" connect="1" arrows="1" fold="1" page="1" pageScale="1" pageWidth="850" pageHeight="1100" math="0" shadow="0">
      <root>
        <mxCell id="0" />
        <mxCell id="1" parent="0" />
        <mxCell id="R8tXR5IRSODI_bRUqqLN-8" value="Mist Valley Negate" style="swimlane;" parent="1" vertex="1">
          <mxGeometry x="20" y="30" width="460" height="250" as="geometry" />
        </mxCell>
        <mxCell id="R8tXR5IRSODI_bRUqqLN-1" value="Mist Valley Apex Avian" style="whiteSpace=wrap;html=1;fillColor=#e1d5e7;strokeColor=#9673a6;" parent="R8tXR5IRSODI_bRUqqLN-8" vertex="1">
          <mxGeometry x="330" y="105" width="120" height="60" as="geometry" />
        </mxCell>
        <mxCell id="R8tXR5IRSODI_bRUqqLN-7" style="edgeStyle=orthogonalEdgeStyle;rounded=0;orthogonalLoop=1;jettySize=auto;html=1;entryX=0;entryY=0.5;entryDx=0;entryDy=0;" parent="R8tXR5IRSODI_bRUqqLN-8" source="R8tXR5IRSODI_bRUqqLN-2" target="R8tXR5IRSODI_bRUqqLN-1" edge="1">
          <mxGeometry relative="1" as="geometry" />
        </mxCell>
        <mxCell id="R8tXR5IRSODI_bRUqqLN-2" value="Mist Valley" style="swimlane;" parent="R8tXR5IRSODI_bRUqqLN-8" vertex="1">
          <mxGeometry x="20" y="40" width="280" height="190" as="geometry" />
        </mxCell>
        <mxCell id="R8tXR5IRSODI_bRUqqLN-4" value="Mist Valley Windmaster" style="whiteSpace=wrap;html=1;fillColor=#dae8fc;strokeColor=#6c8ebf;" parent="R8tXR5IRSODI_bRUqqLN-2" vertex="1">
          <mxGeometry x="145" y="40" width="120" height="60" as="geometry" />
        </mxCell>
        <mxCell id="R8tXR5IRSODI_bRUqqLN-3" value="Mist Valley Baby Roc" style="whiteSpace=wrap;html=1;fillColor=#dae8fc;strokeColor=#6c8ebf;" parent="R8tXR5IRSODI_bRUqqLN-2" vertex="1">
          <mxGeometry x="20" y="40" width="120" height="60" as="geometry" />
        </mxCell>
        <mxCell id="R8tXR5IRSODI_bRUqqLN-5" value="Mist Valley Soldier" style="whiteSpace=wrap;html=1;fillColor=#dae8fc;strokeColor=#6c8ebf;" parent="R8tXR5IRSODI_bRUqqLN-2" vertex="1">
          <mxGeometry x="20" y="110" width="120" height="60" as="geometry" />
        </mxCell>
        <mxCell id="R8tXR5IRSODI_bRUqqLN-6" value="Mist Valley Shaman" style="whiteSpace=wrap;html=1;fillColor=#dae8fc;strokeColor=#6c8ebf;" parent="R8tXR5IRSODI_bRUqqLN-2" vertex="1">
          <mxGeometry x="145" y="110" width="120" height="60" as="geometry" />
        </mxCell>
      </root>
    </mxGraphModel>
  </diagram>
</mxfile>
